HIERARCHY
ROOT Hips
{
    OFFSET 0.000000 0.000000 0.000000
    CHANNELS 6 Xposition Yposition Zposition Zrotation Xrotation Yrotation
    JOINT Spine
    {
        OFFSET -0.000000 7.236184 0.000000
        CHANNELS 3 Zrotation Xrotation Yrotation
        JOINT Spine1
        {
            OFFSET -0.000000 20.420147 0.000000
            CHANNELS 3 Zrotation Xrotation Yrotation
            JOINT Neck
            {
                OFFSET -0.000000 20.336288 1.848754
                CHANNELS 3 Zrotation Xrotation Yrotation
                JOINT Head
                {
                    OFFSET -0.000000 12.354461 -1.764923
                    CHANNELS 3 Zrotation Xrotation Yrotation
                    End Site
                    {
                        OFFSET -0.000000 22.061537 0.000000
                    }
                }
            }
            JOINT LeftShoulder
            {
                OFFSET 3.573296 18.396038 -0.314103
                CHANNELS 3 Zrotation Xrotation Yrotation
                JOINT LeftArm
                {
                    OFFSET 10.880760 0.000000 0.000000
                    CHANNELS 3 Zrotation Xrotation Yrotation
                    JOINT LeftForeArm
                    {
                        OFFSET 27.185530 0.000000 0.000000
                        CHANNELS 3 Zrotation Xrotation Yrotation
                        JOINT LeftHand
                        {
                            OFFSET 27.825975 0.000000 0.000000
                            CHANNELS 3 Zrotation Xrotation Yrotation
                            End Site
                            {
                                OFFSET 13.236923 0.000000 0.000000
                            }
                        }
                    }
                }
            }
            JOINT RightShoulder
            {
                OFFSET -3.474926 18.396038 -0.314103
                CHANNELS 3 Zrotation Xrotation Yrotation
                JOINT RightArm
                {
                    OFFSET -10.880760 0.000000 0.000000
                    CHANNELS 3 Zrotation Xrotation Yrotation
                    JOINT RightForeArm
                    {
                        OFFSET -27.185530 0.000000 0.000000
                        CHANNELS 3 Zrotation Xrotation Yrotation
                        JOINT RightHand
                        {
                            OFFSET -27.825975 0.000000 0.000000
                            CHANNELS 3 Zrotation Xrotation Yrotation
                            End Site
                            {
                                OFFSET -13.236923 0.000000 0.000000
                            }
                        }
                    }
                }
            }
        }
    }
    JOINT LeftUpLeg
    {
        OFFSET 8.824615 0.000000 0.000000
        CHANNELS 3 Zrotation Xrotation Yrotation
        JOINT LeftLeg
        {
            OFFSET -0.000000 -35.111282 0.000000
            CHANNELS 3 Zrotation Xrotation Yrotation
            JOINT LeftFoot
            {
                OFFSET -0.000000 -42.324711 0.000000
                CHANNELS 3 Zrotation Xrotation Yrotation
                JOINT LeftToeBase
                {
                    OFFSET -0.000000 -5.735999 13.236923
                    CHANNELS 3 Zrotation Xrotation Yrotation
                    End Site
                    {
                        OFFSET -0.000000 0.000000 3.529846
                    }
                }
            }
        }
    }
    JOINT RightUpLeg
    {
        OFFSET -8.824615 0.000000 0.000000
        CHANNELS 3 Zrotation Xrotation Yrotation
        JOINT RightLeg
        {
            OFFSET -0.000000 -35.111282 0.000000
            CHANNELS 3 Zrotation Xrotation Yrotation
            JOINT RightFoot
            {
                OFFSET -0.000000 -42.324711 0.000000
                CHANNELS 3 Zrotation Xrotation Yrotation
                JOINT RightToeBase
                {
                    OFFSET -0.000000 -5.735999 13.236923
                    CHANNELS 3 Zrotation Xrotation Yrotation
                    End Site
                    {
                        OFFSET -0.000000 0.000000 3.529846
                    }
                }
            }
        }
    }
}
MOTION
Frames:    11
Frame Time:    0.008333
10.657981    80.723686    109.578415    0.582329    -7.822162    -166.705566    -2.576220    -12.443269    0.357432    1.332109    5.005611    0.580136    0.190487    5.207277    -2.360488    3.157830    0.068522    -2.027316    0.502343    18.408756    -0.395551    -59.089195    39.148018    -26.262541    -2.244767    -11.708913    -19.989424    20.949898    -11.776166    1.768005    7.511809    18.420773    -5.724947    52.704945    34.409325    28.906153    2.546983    -26.839739    13.268859    -23.490887    -24.368004    -14.527299    3.748631    -20.933140    2.799880    -1.802460    27.268814    7.442351    -2.821142    -10.229838    -8.731897    -0.330000    -2.006402    0.367140    -2.654818    -2.457537    -4.498243    3.001965    5.103711    4.814395    -1.861007    -7.320096    -13.501197    -0.589480    -0.578455    0.638076    
10.634285    80.704483    109.574066    0.772203    -7.843190    -166.272797    -2.478220    -12.386623    0.547930    1.298977    5.014564    0.760019    0.075012    5.032678    -2.545073    3.264468    0.205651    -2.196470    0.446754    18.510517    -0.260142    -59.931461    38.543533    -25.195824    -2.287216    -12.055964    -19.690166    21.093641    -12.084869    1.972914    7.494998    18.322786    -5.569155    52.734283    33.865162    29.150639    2.549086    -27.682716    13.940390    -24.542126    -24.981813    -15.196267    3.730328    -21.485077    3.131785    -2.055200    27.925180    8.854399    -2.653559    -10.173160    -8.832211    -0.319581    -2.271098    0.355725    -2.445591    -2.605264    -4.980295    2.882522    5.385396    4.725702    -1.798331    -7.409704    -13.456291    -0.588598    -0.681579    0.637213
10.609484    80.682610    109.564339    0.972778    -7.851522    -165.809906    -2.380533    -12.329356    0.748017    1.266706    5.016365    0.949729    -0.043731    4.871247    -2.748191    3.386951    0.364770    -2.382978    0.388452    18.617781    -0.133570    -60.763695    37.915333    -24.085485    -2.292167    -12.317053    -19.344952    21.191164    -12.301641    2.172483    7.461633    18.209841    -5.412452    52.738068    33.336040    29.453558    2.534321    -28.440300    14.750683    -25.544052    -25.524454    -15.778499    3.712227    -22.018167    3.491315    -2.327523    28.549532    10.351573    -2.480634    -10.113008    -8.910774    -0.314321    -2.544456    0.350049    -2.228734    -2.759353    -5.452742    2.766138    5.708062    4.654443    -1.742307    -7.507642    -13.470727    -0.583775    -0.797409    0.632093
10.583882    80.657806    109.548141    1.184267    -7.844410    -165.312836    -2.283974    -12.270679    0.957055    1.234699    5.010443    1.148593    -0.165492    4.724186    -2.972507    3.528545    0.548141    -2.589317    0.329401    18.730423    -0.017557    -61.577496    37.252289    -22.937195    -2.261598    -12.488675    -18.954132    21.230930    -12.426553    2.353395    7.410167    18.083660    -5.256474    52.724525    32.822689    29.807705    2.505723    -29.107121    15.720517    -26.462063    -26.003838    -16.246075    3.693990    -22.527287    3.874303    -2.617339    29.136417    11.924901    -2.299634    -10.055060    -8.963036    -0.314162    -2.818410    0.350053    -2.003579    -2.919498    -5.916884    2.652864    6.077472    4.606711    -1.693415    -7.614068    -13.551128    -0.573924    -0.927157    0.621539
10.558061    80.629791    109.524391    1.406352    -7.818612    -164.778824    -2.189058    -12.209733    1.173629    1.201362    4.997164    1.355400    -0.289258    4.592546    -3.220118    3.692783    0.756843    -2.817569    0.273123    18.846621    0.087086    -62.358685    36.546852    -21.764248    -2.200078    -12.573139    -18.521423    21.207859    -12.465553    2.504387    7.340633    17.948189    -5.103885    52.698895    32.328270    30.206289    2.466273    -29.672968    16.864208    -27.261509    -26.424238    -16.567804    3.676064    -23.005558    4.275156    -2.921155    29.679190    13.554781    -2.108379    -10.006477    -8.983500    -0.317624    -3.079949    0.354086    -1.769244    -3.089235    -6.372304    2.541407    6.505766    4.578638    -1.653855    -7.730916    -13.693995    -0.557449    -1.071833    0.603819
10.532469    80.597893    109.491852    1.641509    -7.770742    -164.197815    -2.095534    -12.144891    1.398722    1.164970    4.976480    1.571112    -0.415016    4.476092    -3.496281    3.884389    0.993638    -3.072997    0.223268    18.963984    0.181075    -63.101387    35.784119    -20.567163    -2.112944    -12.579983    -18.046722    21.124548    -12.430797    2.618490    7.252530    17.805208    -4.954592    52.664333    31.853542    30.645828    2.415584    -30.132948    18.206682    -27.920712    -26.792900    -16.716631    3.658782    -23.452641    4.692840    -3.238245    30.178507    15.235755    -1.902133    -9.974681    -8.967910    -0.324612    -3.317039    0.362040    -1.521857    -3.278856    -6.822346    2.428291    7.017628    4.557051    -1.623283    -7.862865    -13.890581    -0.532294    -1.236028    0.576705
10.508151    80.562027    109.450165    1.887518    -7.698774    -163.570129    -2.005088    -12.075203    1.628639    1.123627    4.948048    1.792231    -0.540904    4.375448    -3.801147    4.106119    1.256894    -3.355896    0.185591    19.076050    0.265171    -63.783726    34.966370    -19.371016    -2.007808    -12.523843    -17.542236    20.992558    -12.339298    2.691499    7.147204    17.659441    -4.810850    52.623325    31.410454    31.113659    2.351322    -30.473257    19.743608    -28.411125    -27.107182    -16.666464    3.642263    -23.860455    5.118305    -3.560148    30.626047    16.925552    -1.680507    -9.967604    -8.915068    -0.336369    -3.513062    0.375293    -1.263080    -3.496490    -7.259322    2.312791    7.629090    4.527114    -1.579330    -8.012520    -14.126130    -0.495888    -1.426206    0.537405
10.485835    80.521713    109.398773    2.145299    -7.600975    -162.887161    -1.918755    -11.998685    1.862576    1.074905    4.910284    2.018177    -0.667008    4.290501    -4.138781    4.363481    1.546246    -3.670158    0.165039    19.177000    0.342310    -64.394440    34.086777    -18.183556    -1.890210    -12.423636    -17.016396    20.828897    -12.210331    2.725721    7.024312    17.514032    -4.671533    52.577343    31.005404    31.602283    2.266026    -30.689949    21.484623    -28.722416    -27.368059    -16.400690    3.625787    -24.229475    5.548490    -3.881777    31.022570    18.603279    -1.440135    -9.992202    -8.825949    -0.353843    -3.653856    0.394896    -0.991940    -3.753594    -7.681445    2.193319    8.362245    4.473755    -1.541104    -8.175243    -14.396646    -0.447759    -1.643339    0.485396
10.466387    80.476639    109.337410    2.414646    -7.476746    -162.141342    -1.838474    -11.914001    2.098490    1.015650    4.861938    2.247250    -0.792901    4.221459    -4.512224    4.661819    1.858507    -4.018726    0.166912    19.259754    0.415703    -64.918190    33.141895    -17.017710    -1.764730    -12.299531    -16.482414    20.657372    -12.063603    2.726212    6.884015    17.372648    -4.534803    52.527626    30.644707    32.102428    2.149089    -30.779177    23.428659    -28.849127    -27.571915    -15.906992    3.607692    -24.560169    5.978802    -4.195086    31.368477    20.240620    -1.178773    -10.054874    -8.703987    -0.376709    -3.726275    0.420474    -0.709639    -4.061484    -8.085361    2.069894    9.236693    4.384047    -1.487507    -8.349280    -14.694246    -0.385710    -1.897585    0.418282
10.450824    80.426773    109.266495    2.693213    -7.327238    -161.330215    -1.766946    -11.821309    2.332823    0.942719    4.803379    2.476269    -0.918860    4.168320    -4.921854    5.005959    2.187578    -4.401718    0.194809    19.316904    0.488106    -65.333931    32.135345    -15.894773    -1.635404    -12.171784    -15.960988    20.506832    -11.918302    2.699659    6.728375    17.238823    -4.399238    52.475258    30.333725    32.601311    1.986905    -30.738802    25.551544    -28.790861    -27.710466    -15.181937    3.586284    -24.852951    6.402033    -4.489544    31.664751    21.798210    -0.896813    -10.160310    -8.553572    -0.401067    -3.717892    0.447654    -0.420253    -4.430302    -8.466626    1.943593    10.265599    4.245103    -1.412923    -8.528277    -15.008753    -0.308529    -2.193584    0.334725
10.440092    80.371529    109.185913    2.981653    -7.152829    -160.441360    -1.706704    -11.720218    2.564597    0.852148    4.735290    2.704590    -1.049395    4.130245    -5.373207    5.408557    2.530225    -4.823301    0.251010    19.341631    0.561286    -65.624458    31.060421    -14.824039    -1.501099    -12.056307    -15.469880    20.405281    -11.788775    2.651370    6.558862    17.113499    -4.262077    52.419788    30.071117    33.093639    1.759524    -30.567642    27.841883    -28.548695    -27.773081    -14.217505    3.559021    -25.113518    6.815351    -4.756859    31.918453    23.252317    -0.593399    -10.313174    -8.377065    -0.422958    -3.622321    0.472002    -0.125982    -4.875827    -8.825454    1.815574    11.474265    4.041975    -1.304646    -8.706822    -15.331795    -0.213969    -2.542654    0.232253
